<svg id="Calque_1" data-name="Calque 1" xmlns="http://www.w3.org/2000/svg" xmlns:xlink="http://www.w3.org/1999/xlink" viewBox="0 0 258.03 66.11"><defs><style>.cls-1,.cls-5{fill:none;}.cls-2{isolation:isolate;}.cls-3{fill:#fff;}.cls-4{clip-path:url(#clip-path);}.cls-5{stroke:#fff;stroke-miterlimit:10;stroke-width:1.51px;}</style><clipPath id="clip-path"><rect class="cls-1" width="64.62" height="66.11"/></clipPath></defs><title>motherbase_logo_header</title><g class="cls-2"><path class="cls-3" d="M92.75,41V27.18L87,37.75H85.71L79.9,27.18V41H77.69V23.14H80l6.31,11.57,6.32-11.57H95V41Z"/><path class="cls-3" d="M106.19,41.09a7.34,7.34,0,0,1-3.35-.77,8.39,8.39,0,0,1-2.58-2,9.28,9.28,0,0,1-1.67-2.9A9.84,9.84,0,0,1,98,32.05a9.69,9.69,0,0,1,2.35-6.3,8.39,8.39,0,0,1,2.62-2,7.33,7.33,0,0,1,3.27-.74,7,7,0,0,1,3.34.79,8.75,8.75,0,0,1,2.57,2.07,9.39,9.39,0,0,1,1.67,2.9,9.65,9.65,0,0,1,.59,3.3,9.38,9.38,0,0,1-.63,3.41,9.27,9.27,0,0,1-1.71,2.87,8.46,8.46,0,0,1-2.6,2A7.41,7.41,0,0,1,106.19,41.09Zm-6-9a8.33,8.33,0,0,0,.43,2.63,7.24,7.24,0,0,0,1.22,2.24,6,6,0,0,0,1.88,1.56,5.31,5.31,0,0,0,2.46.57,5.06,5.06,0,0,0,2.5-.61,6.16,6.16,0,0,0,1.87-1.61,7.17,7.17,0,0,0,1.18-2.24,8.23,8.23,0,0,0,.41-2.54,8.32,8.32,0,0,0-.43-2.62,7.1,7.1,0,0,0-1.23-2.23,6.14,6.14,0,0,0-1.89-1.55,5.44,5.44,0,0,0-4.91,0,6,6,0,0,0-1.88,1.58,7.24,7.24,0,0,0-1.19,2.23A8,8,0,0,0,100.23,32.05Z"/><path class="cls-3" d="M129.49,25.15h-6V41h-2.2V25.15h-6v-2h14.22Z"/><path class="cls-3" d="M146,23.14V41h-2.21v-8.1H134.2V41H132V23.14h2.21v7.71h9.59V23.14Z"/><path class="cls-3" d="M162,39v2H150.17V23.14h11.6v2h-9.4v5.77h8.17v1.89h-8.17V39Z"/><path class="cls-3" d="M165,41V23.14h7.45a4.69,4.69,0,0,1,2.12.49,5.49,5.49,0,0,1,1.67,1.31,6,6,0,0,1,1.09,1.83,5.75,5.75,0,0,1,.39,2.07,6.36,6.36,0,0,1-.25,1.8,5.47,5.47,0,0,1-.74,1.56,5.09,5.09,0,0,1-1.15,1.21,4.7,4.7,0,0,1-1.51.73L178.3,41h-2.5l-4-6.4h-4.61V41Zm2.2-8.4h5.28a2.52,2.52,0,0,0,1.23-.31,3,3,0,0,0,.95-.81,4.05,4.05,0,0,0,.61-1.19,4.47,4.47,0,0,0,.22-1.41,4,4,0,0,0-.25-1.42,4.75,4.75,0,0,0-.69-1.18,3.11,3.11,0,0,0-1-.8,2.7,2.7,0,0,0-1.21-.29h-5.13Z"/><path class="cls-3" d="M194.49,36.37a4.32,4.32,0,0,1-.41,1.88,4.54,4.54,0,0,1-1.1,1.46,5,5,0,0,1-1.62.92,5.79,5.79,0,0,1-2,.33h-8.26V23.14h8.66a3.35,3.35,0,0,1,1.64.41,3.93,3.93,0,0,1,1.25,1,4.86,4.86,0,0,1,.8,1.45,5,5,0,0,1,.28,1.65,4.92,4.92,0,0,1-.65,2.46,4,4,0,0,1-1.85,1.68,4.36,4.36,0,0,1,2.37,1.67A4.79,4.79,0,0,1,194.49,36.37ZM183.33,25.1v5.95h5.54a2.44,2.44,0,0,0,1.08-.24,2.54,2.54,0,0,0,.84-.64,3.07,3.07,0,0,0,.57-.94,3.12,3.12,0,0,0,.21-1.14,3.52,3.52,0,0,0-.2-1.18,3,3,0,0,0-.53-.95,2.28,2.28,0,0,0-.81-.63,2.3,2.3,0,0,0-1-.23ZM192.25,36a3.6,3.6,0,0,0-.2-1.17,3.21,3.21,0,0,0-.57-1,2.89,2.89,0,0,0-.84-.68,2.45,2.45,0,0,0-1.08-.25h-6.23V39h6a2.5,2.5,0,0,0,1.13-.25,3,3,0,0,0,.91-.66,3,3,0,0,0,.61-1A3,3,0,0,0,192.25,36Z"/><path class="cls-3" d="M202.51,23.14h1.86L211.48,41h-2.35l-2.06-5.22h-7.31l-2,5.22h-2.35ZM206.58,34l-3.14-8.23L200.2,34Z"/><path class="cls-3" d="M223.79,26.88a3.32,3.32,0,0,0-.78-.67,6.74,6.74,0,0,0-1.1-.59,7.51,7.51,0,0,0-1.34-.43,6.79,6.79,0,0,0-1.51-.16,4.71,4.71,0,0,0-3,.77,2.62,2.62,0,0,0-.94,2.14,2.42,2.42,0,0,0,.27,1.2,2.28,2.28,0,0,0,.84.82,6.81,6.81,0,0,0,1.44.59c.57.16,1.25.34,2,.52a25.25,25.25,0,0,1,2.44.69,7.3,7.3,0,0,1,1.87,1,3.87,3.87,0,0,1,1.17,1.41,4.59,4.59,0,0,1,.41,2,4.72,4.72,0,0,1-.49,2.22A4.39,4.39,0,0,1,223.78,40a5.64,5.64,0,0,1-2,.9,10.39,10.39,0,0,1-2.5.29,11.45,11.45,0,0,1-3.81-.64,10.7,10.7,0,0,1-3.28-1.87l1.06-1.91a5.33,5.33,0,0,0,1,.85,7.92,7.92,0,0,0,1.42.77,9.78,9.78,0,0,0,1.71.55,8.71,8.71,0,0,0,1.93.21,5.24,5.24,0,0,0,2.89-.67,2.55,2.55,0,0,0,.7-3.3,2.71,2.71,0,0,0-1-.89,6.7,6.7,0,0,0-1.58-.67c-.63-.19-1.34-.39-2.14-.59a21.37,21.37,0,0,1-2.33-.7,6.32,6.32,0,0,1-1.68-.9,3.49,3.49,0,0,1-1-1.28,4.36,4.36,0,0,1-.34-1.81,5.21,5.21,0,0,1,.46-2.26,4.9,4.9,0,0,1,1.3-1.66,5.58,5.58,0,0,1,2-1,8.84,8.84,0,0,1,8.21,1.69Z"/><path class="cls-3" d="M240.32,39v2H228.5V23.14h11.6v2h-9.39v5.77h8.17v1.89h-8.17V39Z"/><path class="cls-3" d="M248.93,24.6H246.6v5.82h-1.47V24.6H242.8V23.09h6.13Zm7-1.46H258v7.28h-1.47V25.2l-1.91,4.17h-1.2l-1.92-4.17v5.22h-1.47V23.14h2.09L254,27.61Z"/></g><g class="cls-4"><g class="cls-4"><ellipse class="cls-5" cx="31.49" cy="33.06" rx="28.59" ry="29.26"/><path class="cls-3" d="M21.39,34.76c.87.24,1.82.47,2.85.68v-4a.67.67,0,0,1,.66-.67H38.14a.67.67,0,0,1,.66.67v4c1-.21,1.94-.44,2.79-.67a.71.71,0,0,0,.48-.89c-.84-2.76-2.29-5-3-7.3-.78-2.71,0-7.22-1.25-10.4a5.28,5.28,0,0,0-2.07-2.61,7.83,7.83,0,0,0-4.3-1,8.57,8.57,0,0,0-4.3,1,5.4,5.4,0,0,0-2.07,2.62c-1.26,3.18-.46,7.69-1.24,10.39-.68,2.33-2.14,4.55-3,7.33a.7.7,0,0,0,.48.88M33.88,19.11a1.08,1.08,0,0,1,1.23.93,1,1,0,0,1-.93,1.1A1,1,0,0,1,33,20.37a1.11,1.11,0,0,1,.91-1.26m-6,.93a1.08,1.08,0,0,1,1.23-.93,1.11,1.11,0,0,1,.91,1.26,1,1,0,0,1-1.21.77,1,1,0,0,1-.93-1.1"/><path class="cls-3" d="M36.05,39.74a.69.69,0,1,0,1.38,0,.69.69,0,1,0-1.38,0"/><path class="cls-3" d="M33.63,39.74a.69.69,0,1,0,1.38,0,.69.69,0,1,0-1.38,0"/><path class="cls-3" d="M31.21,39.74a.69.69,0,1,0,.69-.7.69.69,0,0,0-.69.7"/><path class="cls-3" d="M43,36.22a.76.76,0,0,0-.93-.6c-1,.28-2.09.54-3.28.77v4.5a.67.67,0,0,1-.66.67H24.9a.67.67,0,0,1-.66-.67V36.42c-1.25-.23-2.41-.51-3.45-.8a.63.63,0,0,0-.79.49A14.44,14.44,0,0,0,19.73,40c.41,6,6.31,8.55,6.37,9.78.09,1.76,1.93,2.51,5.39,2.51s5.31-.75,5.4-2.51c.06-1.23,6-3.77,6.36-9.78a14.1,14.1,0,0,0-.24-3.8"/></g></g></svg>